<svg width="21" height="20" fill="none" xmlns="http://www.w3.org/2000/svg">
  <path
    d="M11.55 1.197a.65.65 0 11-.276 1.271A7.42 7.42 0 009.7 2.3c-4.076 0-7.38 3.3-7.38 7.37s3.304 7.369 7.38 7.369c4.075 0 7.38-3.3 7.38-7.37 0-.51-.053-1.015-.155-1.506a.65.65 0 111.275-.265c.12.579.181 1.171.181 1.772 0 4.788-3.886 8.67-8.681 8.67-4.795 0-8.682-3.882-8.682-8.67S4.905 1 9.7 1c.627 0 1.247.067 1.85.197z"
    fill="#80889c"/>
  <path fill-rule="evenodd" clip-rule="evenodd"
        d="M10.873 8.501a.652.652 0 00.92 0l3.145-3.14a.65.65 0 10-.921-.92l-3.144 3.14a.65.65 0 000 .92zm-4.454 4.446a.652.652 0 00.921 0l1.086-1.084a.65.65 0 10-.92-.92L6.42 12.027a.65.65 0 000 .92z"
        fill="#80889c"/>
  <rect x="12.087" y="3.601" width="3.69" height="1.3" rx=".65" fill="#80889c"/>
  <rect x="14.475" y="3.601" width="1.302" height="3.685" rx=".651" fill="#80889c"/>
  <path fill-rule="evenodd" clip-rule="evenodd"
        d="M7.095 9.67c0 1.436 1.166 2.6 2.605 2.6a2.603 2.603 0 002.604-2.6A2.602 2.602 0 009.7 7.069a2.603 2.603 0 00-2.605 2.6zm3.905 0a1.301 1.301 0 11-2.602-.002A1.301 1.301 0 0111 9.67z"
        fill="#80889c"/>
</svg>
